<?xml version="1.0" encoding="UTF-8"?>
<svg width="176px" height="38px" viewBox="0 0 176 38" version="1.1" xmlns="http://www.w3.org/2000/svg" xmlns:xlink="http://www.w3.org/1999/xlink">
    <title>logo</title>
    <g id="Page-1-Copy-2" stroke="none" stroke-width="1" fill="none" fill-rule="evenodd">
        <g id="logo">
            <g id="Group" transform="translate(0.000000, -0.000000)">
                <path d="M16.6141501,37.9582401 C16.0596425,37.8851704 15.5019718,37.8304472 14.9515764,37.7346024 C14.244603,37.6121869 13.5338337,37.4926183 12.8429926,37.3047247 C12.170498,37.1215758 11.5210947,36.8536535 10.835631,36.6138835 C17.6570544,24.9094407 24.4544376,13.2454867 31.2518208,1.58153271 C31.2787079,1.59418548 31.3055951,1.60652193 31.3327985,1.61885838 C26.9903686,11.8536822 22.648255,22.0881898 18.2444592,32.4675715 C18.883424,32.3663494 19.4135749,32.308463 19.9317058,32.1961697 C24.3472054,31.2396204 27.8937762,27.415954 28.592209,22.9261193 C28.9028345,20.9314105 28.7152572,18.9993329 27.9997431,17.1260906 C27.7881256,16.5722157 27.8064721,16.1135528 28.0487726,15.5764428 C28.7449912,14.0350194 29.3855375,12.4686068 30.0801745,10.8357671 C30.2209365,10.9977225 30.3338625,11.1128627 30.4300235,11.2403393 C32.8580897,14.4525607 33.9427482,18.0737829 33.8121084,22.0938835 C33.5713894,29.4767735 27.9415404,36.1213746 20.673158,37.5286786 C19.8693909,37.6843077 19.0475936,37.7463063 18.2349696,37.8573343 C18.1043298,37.8753645 17.9781184,37.9237613 17.8496928,37.9582401 L16.6141501,37.9582401 Z" id="Fill-21" fill="#313A82"></path>
                <path d="M2.11999333,29.8096046 C2.44010835,30.2682674 2.74598902,30.7376851 3.08445055,31.1821136 C3.51907313,31.7530697 3.95243042,32.3287707 4.43766407,32.8551258 C4.91024495,33.3678792 5.44735494,33.820532 5.97592431,34.3184184 C13.2196339,22.8705104 20.4383542,11.4624587 27.6567582,0.0544069015 C27.6336669,0.0360603882 27.609943,0.0180301941 27.5865354,0 C20.5050976,8.57035226 13.4230271,17.1407045 6.24131612,25.832207 C6.0366576,25.2185478 5.84370289,24.7216104 5.70452244,24.2098059 C4.51864178,19.8502948 6.27737651,14.9410208 9.94003646,12.2516751 C11.5671824,11.0569375 13.3683039,10.3325665 15.3604822,10.1045004 C15.9497848,10.0368081 16.3480307,9.80937455 16.7130631,9.34659957 C17.7603959,8.01869159 18.8551767,6.72842559 19.9841199,5.3590798 C19.7756655,5.30878505 19.6216181,5.26196981 19.4640911,5.23508267 C15.4942852,4.56069015 11.7806979,5.26671459 8.27303431,7.23580158 C1.83182654,10.8516463 -1.47054585,18.9101941 0.630446241,26.0093458 C0.86262453,26.79445 1.18653539,27.5523508 1.46236572,28.3248023 C1.50665041,28.4487994 1.52183373,28.5835514 1.55061878,28.7132423 C1.7404103,29.0785909 1.93020181,29.4442559 2.11999333,29.8096046" id="Fill-38" fill="#94C840"></path>
            </g>
            <path d="M57.8838842,33.028431 L57.8838842,11.9561218 L64.5496147,11.9561218 L64.5496147,7.5123015 L46.2367746,7.5123015 L46.2367746,11.9561218 L52.902505,11.9561218 L52.902505,33.028431 L57.8838842,33.028431 Z M71.0003216,33.028431 L72.5413238,28.5129362 L81.6081507,28.5129362 L83.1133157,33.028431 L88.3097184,33.028431 L78.9920307,7.5123015 L75.0857693,7.5123015 L65.8039188,33.028431 L71.0003216,33.028431 Z M80.2821721,24.3199767 L73.938977,24.3199767 L77.1643304,15.0381262 L80.2821721,24.3199767 Z M96.4447766,33.028431 L96.4447766,22.850649 L100.028503,22.850649 L105.009882,33.028431 L110.779681,33.028431 L105.081556,22.026392 C106.419481,21.5485619 107.530436,20.7362506 108.414422,19.5894583 C109.298407,18.442666 109.7404,17.0211213 109.7404,15.3248243 C109.7404,13.1268057 108.993791,11.2752139 107.500571,9.77004892 C106.007352,8.26488398 103.994493,7.5123015 101.461993,7.5123015 L101.461993,7.5123015 L91.4633974,7.5123015 L91.4633974,33.028431 L96.4447766,33.028431 Z M101.139458,18.6935268 L96.4447766,18.6935268 L96.4447766,11.9561218 L101.139458,11.9561218 C102.214576,11.9561218 103.086616,12.2667114 103.755578,12.8878906 C104.42454,13.5090698 104.759021,14.321381 104.759021,15.3248243 C104.759021,16.3282676 104.42454,17.1405788 103.755578,17.761758 C103.086616,18.3829372 102.214576,18.6935268 101.139458,18.6935268 L101.139458,18.6935268 Z M123.430234,33.2434546 C126.321106,33.2434546 128.722203,32.2758485 130.633523,30.3406365 C131.517509,29.4088677 132.144661,28.3456956 132.514979,27.1511203 C132.885298,25.9565449 133.070457,24.4274885 133.070457,22.5639509 L133.070457,22.5639509 L133.070457,18.8368758 L123.430234,18.8368758 L123.430234,22.9939981 L128.124915,22.9939981 L128.124915,23.9616041 C128.124915,25.3473115 127.742651,26.4821581 126.978123,27.3661439 C126.094137,28.3218041 124.911507,28.7996343 123.430234,28.7996343 C122.044526,28.7996343 120.981354,28.3576414 120.240718,27.4736556 C119.738996,26.876368 119.410488,26.1417041 119.255193,25.2696641 C119.099898,24.3976241 119.022251,22.7311915 119.022251,20.2703663 L119.023057,19.8525336 C119.031654,17.66675 119.109033,16.1634865 119.255193,15.3427429 C119.410488,14.4707029 119.738996,13.7240933 120.240718,13.1029142 C121.029137,12.1950369 122.092309,11.7410982 123.430234,11.7410982 C125.867168,11.7410982 127.396224,12.9834566 128.017403,15.4681733 L128.017403,15.4681733 L133.03462,15.4681733 C132.676247,13.0790226 131.672804,11.1199191 130.02429,9.59086262 C128.375776,8.06180617 126.177757,7.29727794 123.430234,7.29727794 C120.706602,7.29727794 118.413017,8.22904671 116.54948,10.0925843 C115.45047,11.1915936 114.757617,12.4697892 114.470919,13.9271711 C114.184221,15.3606616 114.040872,17.4750599 114.040872,20.2703663 C114.040872,23.0656726 114.184221,25.180071 114.470919,26.6135614 C114.757617,28.0709433 115.45047,29.3491389 116.54948,30.4481483 C118.413017,32.3116858 120.706602,33.2434546 123.430234,33.2434546 Z M154.536976,33.028431 L154.536976,28.5846107 L142.71068,28.5846107 L142.71068,22.3847646 L152.78095,22.3847646 L152.78095,17.9409443 L142.71068,17.9409443 L142.71068,11.9561218 L154.536976,11.9561218 L154.536976,7.5123015 L137.729301,7.5123015 L137.729301,33.028431 L154.536976,33.028431 Z M169.158578,33.028431 L169.158578,11.9561218 L175.824309,11.9561218 L175.824309,7.5123015 L157.511469,7.5123015 L157.511469,11.9561218 L164.177199,11.9561218 L164.177199,33.028431 L169.158578,33.028431 Z" id="TARGET" fill="#293686" fill-rule="nonzero"></path>
        </g>
    </g>
</svg>